<mxfile host="app.diagrams.net" modified="2023-11-24T08:24:23.561Z" agent="Mozilla/5.0 (Windows NT 10.0; Win64; x64) AppleWebKit/537.36 (KHTML, like Gecko) Chrome/119.0.0.0 Safari/537.36" etag="CwBbnWoUfNVyKyyePSDL" version="22.1.3" type="device">
  <diagram id="C5RBs43oDa-KdzZeNtuy" name="Page-1">
    <mxGraphModel dx="1050" dy="556" grid="1" gridSize="10" guides="1" tooltips="1" connect="1" arrows="1" fold="1" page="1" pageScale="1" pageWidth="827" pageHeight="1169" math="0" shadow="0">
      <root>
        <mxCell id="WIyWlLk6GJQsqaUBKTNV-0" />
        <mxCell id="WIyWlLk6GJQsqaUBKTNV-1" parent="WIyWlLk6GJQsqaUBKTNV-0" />
        <mxCell id="diR4fG4tqq78r3qzVsri-48" value="" style="edgeStyle=none;rounded=0;orthogonalLoop=1;jettySize=auto;html=1;" edge="1" parent="WIyWlLk6GJQsqaUBKTNV-1" source="diR4fG4tqq78r3qzVsri-7" target="diR4fG4tqq78r3qzVsri-3">
          <mxGeometry relative="1" as="geometry" />
        </mxCell>
        <mxCell id="diR4fG4tqq78r3qzVsri-30" value="" style="edgeStyle=orthogonalEdgeStyle;rounded=0;orthogonalLoop=1;jettySize=auto;html=1;" edge="1" parent="WIyWlLk6GJQsqaUBKTNV-1" source="WIyWlLk6GJQsqaUBKTNV-3" target="diR4fG4tqq78r3qzVsri-4">
          <mxGeometry relative="1" as="geometry">
            <Array as="points">
              <mxPoint x="620" y="550" />
              <mxPoint x="620" y="550" />
            </Array>
          </mxGeometry>
        </mxCell>
        <mxCell id="WIyWlLk6GJQsqaUBKTNV-3" value="n1/n2" style="rounded=1;whiteSpace=wrap;html=1;fontSize=12;glass=0;strokeWidth=1;shadow=0;" parent="WIyWlLk6GJQsqaUBKTNV-1" vertex="1">
          <mxGeometry x="560" y="480" width="120" height="40" as="geometry" />
        </mxCell>
        <mxCell id="diR4fG4tqq78r3qzVsri-38" value="" style="edgeStyle=orthogonalEdgeStyle;rounded=0;orthogonalLoop=1;jettySize=auto;html=1;" edge="1" parent="WIyWlLk6GJQsqaUBKTNV-1" source="WIyWlLk6GJQsqaUBKTNV-7" target="diR4fG4tqq78r3qzVsri-3">
          <mxGeometry relative="1" as="geometry" />
        </mxCell>
        <mxCell id="WIyWlLk6GJQsqaUBKTNV-7" value="n1*n2" style="rounded=1;whiteSpace=wrap;html=1;fontSize=12;glass=0;strokeWidth=1;shadow=0;" parent="WIyWlLk6GJQsqaUBKTNV-1" vertex="1">
          <mxGeometry x="390" y="480" width="120" height="40" as="geometry" />
        </mxCell>
        <mxCell id="diR4fG4tqq78r3qzVsri-21" style="edgeStyle=orthogonalEdgeStyle;rounded=0;orthogonalLoop=1;jettySize=auto;html=1;entryX=0.5;entryY=0;entryDx=0;entryDy=0;" edge="1" parent="WIyWlLk6GJQsqaUBKTNV-1" source="WIyWlLk6GJQsqaUBKTNV-11" target="diR4fG4tqq78r3qzVsri-1">
          <mxGeometry relative="1" as="geometry" />
        </mxCell>
        <mxCell id="WIyWlLk6GJQsqaUBKTNV-11" value="n1+n2" style="rounded=1;whiteSpace=wrap;html=1;fontSize=12;glass=0;strokeWidth=1;shadow=0;" parent="WIyWlLk6GJQsqaUBKTNV-1" vertex="1">
          <mxGeometry x="60" y="480" width="120" height="40" as="geometry" />
        </mxCell>
        <mxCell id="diR4fG4tqq78r3qzVsri-13" style="edgeStyle=orthogonalEdgeStyle;rounded=0;orthogonalLoop=1;jettySize=auto;html=1;entryX=0.5;entryY=0;entryDx=0;entryDy=0;" edge="1" parent="WIyWlLk6GJQsqaUBKTNV-1" source="diR4fG4tqq78r3qzVsri-0" target="diR4fG4tqq78r3qzVsri-9">
          <mxGeometry relative="1" as="geometry" />
        </mxCell>
        <mxCell id="diR4fG4tqq78r3qzVsri-0" value="INICIO" style="ellipse;whiteSpace=wrap;html=1;" vertex="1" parent="WIyWlLk6GJQsqaUBKTNV-1">
          <mxGeometry x="310" width="120" height="80" as="geometry" />
        </mxCell>
        <mxCell id="diR4fG4tqq78r3qzVsri-1" value="RESULTADO&lt;br&gt;SUMA" style="shape=document;whiteSpace=wrap;html=1;boundedLbl=1;" vertex="1" parent="WIyWlLk6GJQsqaUBKTNV-1">
          <mxGeometry x="60" y="560" width="120" height="80" as="geometry" />
        </mxCell>
        <mxCell id="diR4fG4tqq78r3qzVsri-2" value="RESULTADO&lt;br&gt;RESTA" style="shape=document;whiteSpace=wrap;html=1;boundedLbl=1;" vertex="1" parent="WIyWlLk6GJQsqaUBKTNV-1">
          <mxGeometry x="230" y="560" width="120" height="80" as="geometry" />
        </mxCell>
        <mxCell id="diR4fG4tqq78r3qzVsri-3" value="RESULTADO&lt;br&gt;MULTIPLICACIÓN" style="shape=document;whiteSpace=wrap;html=1;boundedLbl=1;" vertex="1" parent="WIyWlLk6GJQsqaUBKTNV-1">
          <mxGeometry x="390" y="560" width="120" height="80" as="geometry" />
        </mxCell>
        <mxCell id="diR4fG4tqq78r3qzVsri-4" value="RESULTADO&lt;br&gt;DIVISIOÖN" style="shape=document;whiteSpace=wrap;html=1;boundedLbl=1;" vertex="1" parent="WIyWlLk6GJQsqaUBKTNV-1">
          <mxGeometry x="550" y="560" width="120" height="80" as="geometry" />
        </mxCell>
        <mxCell id="diR4fG4tqq78r3qzVsri-24" value="" style="edgeStyle=orthogonalEdgeStyle;rounded=0;orthogonalLoop=1;jettySize=auto;html=1;" edge="1" parent="WIyWlLk6GJQsqaUBKTNV-1" source="diR4fG4tqq78r3qzVsri-6" target="diR4fG4tqq78r3qzVsri-19">
          <mxGeometry relative="1" as="geometry" />
        </mxCell>
        <mxCell id="diR4fG4tqq78r3qzVsri-6" value="RESTAR" style="rhombus;whiteSpace=wrap;html=1;" vertex="1" parent="WIyWlLk6GJQsqaUBKTNV-1">
          <mxGeometry x="250" y="330" width="80" height="110" as="geometry" />
        </mxCell>
        <mxCell id="diR4fG4tqq78r3qzVsri-36" value="" style="edgeStyle=orthogonalEdgeStyle;rounded=0;orthogonalLoop=1;jettySize=auto;html=1;" edge="1" parent="WIyWlLk6GJQsqaUBKTNV-1" source="diR4fG4tqq78r3qzVsri-8" target="WIyWlLk6GJQsqaUBKTNV-3">
          <mxGeometry relative="1" as="geometry" />
        </mxCell>
        <mxCell id="diR4fG4tqq78r3qzVsri-8" value="DIVISION" style="rhombus;whiteSpace=wrap;html=1;" vertex="1" parent="WIyWlLk6GJQsqaUBKTNV-1">
          <mxGeometry x="580" y="335" width="80" height="105" as="geometry" />
        </mxCell>
        <mxCell id="diR4fG4tqq78r3qzVsri-14" style="edgeStyle=orthogonalEdgeStyle;rounded=0;orthogonalLoop=1;jettySize=auto;html=1;entryX=0.5;entryY=0;entryDx=0;entryDy=0;" edge="1" parent="WIyWlLk6GJQsqaUBKTNV-1" source="diR4fG4tqq78r3qzVsri-9" target="diR4fG4tqq78r3qzVsri-12">
          <mxGeometry relative="1" as="geometry" />
        </mxCell>
        <mxCell id="diR4fG4tqq78r3qzVsri-9" value="n1,n2,op" style="shape=parallelogram;perimeter=parallelogramPerimeter;whiteSpace=wrap;html=1;fixedSize=1;" vertex="1" parent="WIyWlLk6GJQsqaUBKTNV-1">
          <mxGeometry x="310" y="120" width="120" height="50" as="geometry" />
        </mxCell>
        <mxCell id="diR4fG4tqq78r3qzVsri-5" value="SUMAR" style="rhombus;whiteSpace=wrap;html=1;" vertex="1" parent="WIyWlLk6GJQsqaUBKTNV-1">
          <mxGeometry x="70" y="330" width="90" height="110" as="geometry" />
        </mxCell>
        <mxCell id="diR4fG4tqq78r3qzVsri-7" value="MULTIPLICAR" style="rhombus;whiteSpace=wrap;html=1;" vertex="1" parent="WIyWlLk6GJQsqaUBKTNV-1">
          <mxGeometry x="410" y="335" width="80" height="110" as="geometry" />
        </mxCell>
        <mxCell id="diR4fG4tqq78r3qzVsri-44" style="edgeStyle=none;rounded=0;orthogonalLoop=1;jettySize=auto;html=1;" edge="1" parent="WIyWlLk6GJQsqaUBKTNV-1" source="diR4fG4tqq78r3qzVsri-12" target="diR4fG4tqq78r3qzVsri-5">
          <mxGeometry relative="1" as="geometry" />
        </mxCell>
        <mxCell id="diR4fG4tqq78r3qzVsri-45" style="edgeStyle=none;rounded=0;orthogonalLoop=1;jettySize=auto;html=1;entryX=0;entryY=0;entryDx=0;entryDy=0;" edge="1" parent="WIyWlLk6GJQsqaUBKTNV-1" source="diR4fG4tqq78r3qzVsri-12" target="diR4fG4tqq78r3qzVsri-8">
          <mxGeometry relative="1" as="geometry" />
        </mxCell>
        <mxCell id="diR4fG4tqq78r3qzVsri-46" style="edgeStyle=none;rounded=0;orthogonalLoop=1;jettySize=auto;html=1;" edge="1" parent="WIyWlLk6GJQsqaUBKTNV-1" source="diR4fG4tqq78r3qzVsri-12" target="diR4fG4tqq78r3qzVsri-6">
          <mxGeometry relative="1" as="geometry" />
        </mxCell>
        <mxCell id="diR4fG4tqq78r3qzVsri-47" style="edgeStyle=none;rounded=0;orthogonalLoop=1;jettySize=auto;html=1;" edge="1" parent="WIyWlLk6GJQsqaUBKTNV-1" source="diR4fG4tqq78r3qzVsri-12" target="diR4fG4tqq78r3qzVsri-7">
          <mxGeometry relative="1" as="geometry" />
        </mxCell>
        <mxCell id="diR4fG4tqq78r3qzVsri-12" value="SEGUN&lt;br&gt;OPERACION" style="rhombus;whiteSpace=wrap;html=1;" vertex="1" parent="WIyWlLk6GJQsqaUBKTNV-1">
          <mxGeometry x="305" y="210" width="130" height="120" as="geometry" />
        </mxCell>
        <mxCell id="diR4fG4tqq78r3qzVsri-41" value="" style="edgeStyle=orthogonalEdgeStyle;rounded=0;orthogonalLoop=1;jettySize=auto;html=1;" edge="1" parent="WIyWlLk6GJQsqaUBKTNV-1" source="diR4fG4tqq78r3qzVsri-19" target="diR4fG4tqq78r3qzVsri-2">
          <mxGeometry relative="1" as="geometry" />
        </mxCell>
        <mxCell id="diR4fG4tqq78r3qzVsri-19" value="n1-n2" style="rounded=1;whiteSpace=wrap;html=1;" vertex="1" parent="WIyWlLk6GJQsqaUBKTNV-1">
          <mxGeometry x="230" y="480" width="120" height="40" as="geometry" />
        </mxCell>
        <mxCell id="diR4fG4tqq78r3qzVsri-23" style="edgeStyle=orthogonalEdgeStyle;rounded=0;orthogonalLoop=1;jettySize=auto;html=1;exitX=0.5;exitY=1;exitDx=0;exitDy=0;entryX=0.45;entryY=-0.05;entryDx=0;entryDy=0;entryPerimeter=0;" edge="1" parent="WIyWlLk6GJQsqaUBKTNV-1" source="diR4fG4tqq78r3qzVsri-5" target="WIyWlLk6GJQsqaUBKTNV-11">
          <mxGeometry relative="1" as="geometry" />
        </mxCell>
      </root>
    </mxGraphModel>
  </diagram>
</mxfile>
